<svg width="22" height="22" viewBox="0 0 22 22" fill="none" xmlns="http://www.w3.org/2000/svg">
<path fill-rule="evenodd" clip-rule="evenodd" d="M9.99921 1.75001C5.44286 1.75001 1.74921 5.44366 1.74921 10C1.74921 14.5564 5.44286 18.25 9.99921 18.25C14.5556 18.25 18.2492 14.5564 18.2492 10C18.2492 5.44366 14.5556 1.75001 9.99921 1.75001ZM0.249207 10C0.249207 4.61523 4.61443 0.250008 9.99921 0.250008C15.384 0.250008 19.7492 4.61523 19.7492 10C19.7492 15.3848 15.384 19.75 9.99921 19.75C4.61443 19.75 0.249207 15.3848 0.249207 10Z" fill="#474967"/>
<path fill-rule="evenodd" clip-rule="evenodd" d="M19.353 16.9698C18.5835 16.964 17.8911 17.2675 17.4687 17.854C17.0466 18.4399 16.9762 19.1941 17.2176 19.925L17.2178 19.9257C17.5197 20.8372 18.1095 21.6168 19.0151 21.7382C19.9206 21.8595 20.6944 21.2628 21.2245 20.4648L21.2245 20.4647C21.7282 19.7063 21.9417 18.8156 21.5322 18.0508C21.1228 17.2864 20.2641 16.9706 19.353 16.9698ZM18.6418 19.4543C18.8699 20.1425 19.1499 20.2428 19.2144 20.2515C19.2789 20.2601 19.5751 20.2368 19.975 19.6349M18.6418 19.4543C18.5234 19.0954 18.5929 18.8597 18.6858 18.7307C18.7778 18.603 18.974 18.4665 19.3432 18.4698L19.3432 18.4698H19.3497C19.9774 18.4698 20.1671 18.6792 20.2098 18.7589C20.2527 18.839 20.3213 19.1133 19.975 19.6348" fill="#474967"/>
</svg>
